<mxfile host="Electron" modified="2024-04-03T05:53:21.135Z" agent="Mozilla/5.0 (Windows NT 10.0; Win64; x64) AppleWebKit/537.36 (KHTML, like Gecko) draw.io/22.1.2 Chrome/114.0.5735.289 Electron/25.9.4 Safari/537.36" etag="VSTWc_rsig7jYDOvUXEs" version="22.1.2" type="device">
  <diagram name="Page-1" id="VTS4GcR_WeqUQlOKHwf2">
    <mxGraphModel dx="864" dy="516" grid="1" gridSize="10" guides="1" tooltips="1" connect="1" arrows="1" fold="1" page="1" pageScale="1" pageWidth="827" pageHeight="1169" math="0" shadow="0">
      <root>
        <mxCell id="0" />
        <mxCell id="1" parent="0" />
        <mxCell id="ZS7BS693ceSWYsbFOPGz-2" value="" style="swimlane;startSize=0;" vertex="1" parent="1">
          <mxGeometry x="240" y="80" width="470" height="680" as="geometry" />
        </mxCell>
        <mxCell id="ZS7BS693ceSWYsbFOPGz-3" value="&lt;b&gt;&lt;font style=&quot;font-size: 20px;&quot;&gt;GERER LES ACTFS&lt;/font&gt;&lt;/b&gt;" style="text;html=1;strokeColor=none;fillColor=none;align=center;verticalAlign=middle;whiteSpace=wrap;rounded=0;" vertex="1" parent="ZS7BS693ceSWYsbFOPGz-2">
          <mxGeometry x="127" y="10" width="216" height="30" as="geometry" />
        </mxCell>
        <mxCell id="ZS7BS693ceSWYsbFOPGz-4" value="Enregistrer un materiel" style="ellipse;whiteSpace=wrap;html=1;" vertex="1" parent="ZS7BS693ceSWYsbFOPGz-2">
          <mxGeometry x="80" y="84" width="120" height="40" as="geometry" />
        </mxCell>
        <mxCell id="ZS7BS693ceSWYsbFOPGz-6" value="Modifier un materiel" style="ellipse;whiteSpace=wrap;html=1;" vertex="1" parent="ZS7BS693ceSWYsbFOPGz-2">
          <mxGeometry x="80" y="133" width="120" height="40" as="geometry" />
        </mxCell>
        <mxCell id="ZS7BS693ceSWYsbFOPGz-7" value="Supprimer un materiel" style="ellipse;whiteSpace=wrap;html=1;" vertex="1" parent="ZS7BS693ceSWYsbFOPGz-2">
          <mxGeometry x="80" y="186" width="120" height="40" as="geometry" />
        </mxCell>
        <mxCell id="ZS7BS693ceSWYsbFOPGz-8" value="Consulter la liste des materiels" style="ellipse;whiteSpace=wrap;html=1;" vertex="1" parent="ZS7BS693ceSWYsbFOPGz-2">
          <mxGeometry x="82" y="239" width="118" height="45" as="geometry" />
        </mxCell>
        <mxCell id="ZS7BS693ceSWYsbFOPGz-9" value="Imprimer la liste des materiels" style="ellipse;whiteSpace=wrap;html=1;" vertex="1" parent="ZS7BS693ceSWYsbFOPGz-2">
          <mxGeometry x="82" y="294" width="118" height="50" as="geometry" />
        </mxCell>
        <mxCell id="ZS7BS693ceSWYsbFOPGz-10" value="Attribuer un materiel" style="ellipse;whiteSpace=wrap;html=1;" vertex="1" parent="ZS7BS693ceSWYsbFOPGz-2">
          <mxGeometry x="82" y="395" width="120" height="40" as="geometry" />
        </mxCell>
        <mxCell id="ZS7BS693ceSWYsbFOPGz-11" value="Consuler la liste des attributions" style="ellipse;whiteSpace=wrap;html=1;" vertex="1" parent="ZS7BS693ceSWYsbFOPGz-2">
          <mxGeometry x="81" y="442" width="120" height="40" as="geometry" />
        </mxCell>
        <mxCell id="ZS7BS693ceSWYsbFOPGz-12" value="Enregistrer un logiciel" style="ellipse;whiteSpace=wrap;html=1;" vertex="1" parent="ZS7BS693ceSWYsbFOPGz-2">
          <mxGeometry x="80" y="489" width="120" height="40" as="geometry" />
        </mxCell>
        <mxCell id="ZS7BS693ceSWYsbFOPGz-13" value="Modifier un logiciel" style="ellipse;whiteSpace=wrap;html=1;" vertex="1" parent="ZS7BS693ceSWYsbFOPGz-2">
          <mxGeometry x="78" y="535" width="120" height="40" as="geometry" />
        </mxCell>
        <mxCell id="ZS7BS693ceSWYsbFOPGz-14" value="Supprimer un logiciel" style="ellipse;whiteSpace=wrap;html=1;" vertex="1" parent="ZS7BS693ceSWYsbFOPGz-2">
          <mxGeometry x="79" y="582" width="120" height="40" as="geometry" />
        </mxCell>
        <mxCell id="ZS7BS693ceSWYsbFOPGz-16" value="S&#39;authentifier" style="ellipse;whiteSpace=wrap;html=1;" vertex="1" parent="ZS7BS693ceSWYsbFOPGz-2">
          <mxGeometry x="326" y="350" width="120" height="50" as="geometry" />
        </mxCell>
        <mxCell id="ZS7BS693ceSWYsbFOPGz-18" value="" style="endArrow=classic;html=1;rounded=0;entryX=0.758;entryY=0.04;entryDx=0;entryDy=0;entryPerimeter=0;dashed=1;" edge="1" parent="ZS7BS693ceSWYsbFOPGz-2" target="ZS7BS693ceSWYsbFOPGz-16">
          <mxGeometry width="50" height="50" relative="1" as="geometry">
            <mxPoint x="200" y="105" as="sourcePoint" />
            <mxPoint x="250" y="55" as="targetPoint" />
          </mxGeometry>
        </mxCell>
        <mxCell id="ZS7BS693ceSWYsbFOPGz-19" value="Includes" style="edgeLabel;html=1;align=center;verticalAlign=middle;resizable=0;points=[];" vertex="1" connectable="0" parent="ZS7BS693ceSWYsbFOPGz-18">
          <mxGeometry x="0.2749" y="1" relative="1" as="geometry">
            <mxPoint x="-44" y="-53" as="offset" />
          </mxGeometry>
        </mxCell>
        <mxCell id="ZS7BS693ceSWYsbFOPGz-28" value="" style="endArrow=classic;html=1;rounded=0;entryX=0.033;entryY=0.64;entryDx=0;entryDy=0;entryPerimeter=0;dashed=1;exitX=0.975;exitY=0.275;exitDx=0;exitDy=0;exitPerimeter=0;" edge="1" parent="ZS7BS693ceSWYsbFOPGz-2" source="ZS7BS693ceSWYsbFOPGz-10" target="ZS7BS693ceSWYsbFOPGz-16">
          <mxGeometry width="50" height="50" relative="1" as="geometry">
            <mxPoint x="203" y="420" as="sourcePoint" />
            <mxPoint x="253" y="370" as="targetPoint" />
          </mxGeometry>
        </mxCell>
        <mxCell id="ZS7BS693ceSWYsbFOPGz-34" value="Includes" style="edgeLabel;html=1;align=center;verticalAlign=middle;resizable=0;points=[];" vertex="1" connectable="0" parent="ZS7BS693ceSWYsbFOPGz-28">
          <mxGeometry x="-0.2888" y="3" relative="1" as="geometry">
            <mxPoint as="offset" />
          </mxGeometry>
        </mxCell>
        <mxCell id="ZS7BS693ceSWYsbFOPGz-29" value="" style="endArrow=classic;html=1;rounded=0;entryX=0;entryY=1;entryDx=0;entryDy=0;dashed=1;exitX=1.017;exitY=0.35;exitDx=0;exitDy=0;exitPerimeter=0;" edge="1" parent="ZS7BS693ceSWYsbFOPGz-2" source="ZS7BS693ceSWYsbFOPGz-11" target="ZS7BS693ceSWYsbFOPGz-16">
          <mxGeometry width="50" height="50" relative="1" as="geometry">
            <mxPoint x="200" y="470" as="sourcePoint" />
            <mxPoint x="250" y="420" as="targetPoint" />
          </mxGeometry>
        </mxCell>
        <mxCell id="ZS7BS693ceSWYsbFOPGz-35" value="Includes" style="edgeLabel;html=1;align=center;verticalAlign=middle;resizable=0;points=[];" vertex="1" connectable="0" parent="ZS7BS693ceSWYsbFOPGz-29">
          <mxGeometry x="-0.6718" y="2" relative="1" as="geometry">
            <mxPoint x="11" y="-4" as="offset" />
          </mxGeometry>
        </mxCell>
        <mxCell id="ZS7BS693ceSWYsbFOPGz-30" value="" style="endArrow=classic;html=1;rounded=0;entryX=0.267;entryY=0.98;entryDx=0;entryDy=0;entryPerimeter=0;dashed=1;exitX=1;exitY=0.5;exitDx=0;exitDy=0;" edge="1" parent="ZS7BS693ceSWYsbFOPGz-2" source="ZS7BS693ceSWYsbFOPGz-12" target="ZS7BS693ceSWYsbFOPGz-16">
          <mxGeometry width="50" height="50" relative="1" as="geometry">
            <mxPoint x="200" y="520" as="sourcePoint" />
            <mxPoint x="250" y="470" as="targetPoint" />
          </mxGeometry>
        </mxCell>
        <mxCell id="ZS7BS693ceSWYsbFOPGz-36" value="Includes" style="edgeLabel;html=1;align=center;verticalAlign=middle;resizable=0;points=[];" vertex="1" connectable="0" parent="ZS7BS693ceSWYsbFOPGz-30">
          <mxGeometry x="0.2133" y="1" relative="1" as="geometry">
            <mxPoint as="offset" />
          </mxGeometry>
        </mxCell>
        <mxCell id="ZS7BS693ceSWYsbFOPGz-31" value="" style="endArrow=classic;html=1;rounded=0;entryX=0.433;entryY=0.98;entryDx=0;entryDy=0;entryPerimeter=0;dashed=1;exitX=1;exitY=0.5;exitDx=0;exitDy=0;" edge="1" parent="ZS7BS693ceSWYsbFOPGz-2" source="ZS7BS693ceSWYsbFOPGz-13" target="ZS7BS693ceSWYsbFOPGz-16">
          <mxGeometry width="50" height="50" relative="1" as="geometry">
            <mxPoint x="200" y="580" as="sourcePoint" />
            <mxPoint x="250" y="530" as="targetPoint" />
          </mxGeometry>
        </mxCell>
        <mxCell id="ZS7BS693ceSWYsbFOPGz-37" value="Includes" style="edgeLabel;html=1;align=center;verticalAlign=middle;resizable=0;points=[];" vertex="1" connectable="0" parent="ZS7BS693ceSWYsbFOPGz-31">
          <mxGeometry x="-0.3389" y="1" relative="1" as="geometry">
            <mxPoint as="offset" />
          </mxGeometry>
        </mxCell>
        <mxCell id="ZS7BS693ceSWYsbFOPGz-33" value="" style="endArrow=classic;html=1;rounded=0;entryX=0.592;entryY=1.02;entryDx=0;entryDy=0;dashed=1;exitX=0.992;exitY=0.325;exitDx=0;exitDy=0;exitPerimeter=0;entryPerimeter=0;" edge="1" parent="ZS7BS693ceSWYsbFOPGz-2" source="ZS7BS693ceSWYsbFOPGz-14" target="ZS7BS693ceSWYsbFOPGz-16">
          <mxGeometry width="50" height="50" relative="1" as="geometry">
            <mxPoint x="200" y="630" as="sourcePoint" />
            <mxPoint x="250" y="580" as="targetPoint" />
          </mxGeometry>
        </mxCell>
        <mxCell id="ZS7BS693ceSWYsbFOPGz-38" value="Includes" style="edgeLabel;html=1;align=center;verticalAlign=middle;resizable=0;points=[];" vertex="1" connectable="0" parent="ZS7BS693ceSWYsbFOPGz-33">
          <mxGeometry x="0.0864" relative="1" as="geometry">
            <mxPoint as="offset" />
          </mxGeometry>
        </mxCell>
        <mxCell id="ZS7BS693ceSWYsbFOPGz-53" value="Consuler la liste des logiciels" style="ellipse;whiteSpace=wrap;html=1;" vertex="1" parent="ZS7BS693ceSWYsbFOPGz-2">
          <mxGeometry x="78" y="628" width="120" height="40" as="geometry" />
        </mxCell>
        <mxCell id="ZS7BS693ceSWYsbFOPGz-5" value="TECHNICIEN &lt;br&gt;INFRASTRUCTURE" style="shape=umlActor;verticalLabelPosition=bottom;verticalAlign=top;html=1;outlineConnect=0;" vertex="1" parent="1">
          <mxGeometry x="122" y="210" width="30" height="60" as="geometry" />
        </mxCell>
        <mxCell id="ZS7BS693ceSWYsbFOPGz-15" value="ADMINISTRATEUR" style="shape=umlActor;verticalLabelPosition=bottom;verticalAlign=top;html=1;outlineConnect=0;" vertex="1" parent="1">
          <mxGeometry x="121" y="555" width="30" height="60" as="geometry" />
        </mxCell>
        <mxCell id="ZS7BS693ceSWYsbFOPGz-20" value="" style="endArrow=classic;html=1;rounded=0;entryX=0.5;entryY=0;entryDx=0;entryDy=0;dashed=1;" edge="1" parent="1" target="ZS7BS693ceSWYsbFOPGz-16">
          <mxGeometry width="50" height="50" relative="1" as="geometry">
            <mxPoint x="439" y="233" as="sourcePoint" />
            <mxPoint x="656" y="474" as="targetPoint" />
          </mxGeometry>
        </mxCell>
        <mxCell id="ZS7BS693ceSWYsbFOPGz-21" value="Includes" style="edgeLabel;html=1;align=center;verticalAlign=middle;resizable=0;points=[];" vertex="1" connectable="0" parent="ZS7BS693ceSWYsbFOPGz-20">
          <mxGeometry x="0.2749" y="1" relative="1" as="geometry">
            <mxPoint x="-29" y="-28" as="offset" />
          </mxGeometry>
        </mxCell>
        <mxCell id="ZS7BS693ceSWYsbFOPGz-22" value="" style="endArrow=classic;html=1;rounded=0;entryX=0.325;entryY=0.08;entryDx=0;entryDy=0;entryPerimeter=0;dashed=1;" edge="1" parent="1" target="ZS7BS693ceSWYsbFOPGz-16">
          <mxGeometry width="50" height="50" relative="1" as="geometry">
            <mxPoint x="441" y="287" as="sourcePoint" />
            <mxPoint x="658" y="528" as="targetPoint" />
          </mxGeometry>
        </mxCell>
        <mxCell id="ZS7BS693ceSWYsbFOPGz-23" value="Includes" style="edgeLabel;html=1;align=center;verticalAlign=middle;resizable=0;points=[];" vertex="1" connectable="0" parent="ZS7BS693ceSWYsbFOPGz-22">
          <mxGeometry x="0.2749" y="1" relative="1" as="geometry">
            <mxPoint x="-16" y="-16" as="offset" />
          </mxGeometry>
        </mxCell>
        <mxCell id="ZS7BS693ceSWYsbFOPGz-24" value="" style="endArrow=classic;html=1;rounded=0;entryX=0;entryY=0;entryDx=0;entryDy=0;dashed=1;" edge="1" parent="1" target="ZS7BS693ceSWYsbFOPGz-16">
          <mxGeometry width="50" height="50" relative="1" as="geometry">
            <mxPoint x="439" y="341" as="sourcePoint" />
            <mxPoint x="656" y="582" as="targetPoint" />
          </mxGeometry>
        </mxCell>
        <mxCell id="ZS7BS693ceSWYsbFOPGz-25" value="Includes" style="edgeLabel;html=1;align=center;verticalAlign=middle;resizable=0;points=[];" vertex="1" connectable="0" parent="ZS7BS693ceSWYsbFOPGz-24">
          <mxGeometry x="0.2749" y="1" relative="1" as="geometry">
            <mxPoint x="-12" y="-12" as="offset" />
          </mxGeometry>
        </mxCell>
        <mxCell id="ZS7BS693ceSWYsbFOPGz-26" value="" style="endArrow=classic;html=1;rounded=0;entryX=0;entryY=0.5;entryDx=0;entryDy=0;dashed=1;" edge="1" parent="1" target="ZS7BS693ceSWYsbFOPGz-16">
          <mxGeometry width="50" height="50" relative="1" as="geometry">
            <mxPoint x="438" y="394" as="sourcePoint" />
            <mxPoint x="565" y="502" as="targetPoint" />
          </mxGeometry>
        </mxCell>
        <mxCell id="ZS7BS693ceSWYsbFOPGz-27" value="Includes" style="edgeLabel;html=1;align=center;verticalAlign=middle;resizable=0;points=[];" vertex="1" connectable="0" parent="ZS7BS693ceSWYsbFOPGz-26">
          <mxGeometry x="0.2749" y="1" relative="1" as="geometry">
            <mxPoint as="offset" />
          </mxGeometry>
        </mxCell>
        <mxCell id="ZS7BS693ceSWYsbFOPGz-39" value="" style="shape=flexArrow;endArrow=classic;html=1;rounded=0;" edge="1" parent="1">
          <mxGeometry width="50" height="50" relative="1" as="geometry">
            <mxPoint x="138" y="328" as="sourcePoint" />
            <mxPoint x="138" y="308" as="targetPoint" />
            <Array as="points">
              <mxPoint x="138" y="328" />
            </Array>
          </mxGeometry>
        </mxCell>
        <mxCell id="ZS7BS693ceSWYsbFOPGz-40" value="" style="endArrow=none;html=1;rounded=0;" edge="1" parent="1">
          <mxGeometry width="50" height="50" relative="1" as="geometry">
            <mxPoint x="137" y="548" as="sourcePoint" />
            <mxPoint x="137" y="328" as="targetPoint" />
          </mxGeometry>
        </mxCell>
        <mxCell id="ZS7BS693ceSWYsbFOPGz-41" value="" style="endArrow=none;html=1;rounded=0;entryX=0;entryY=0.5;entryDx=0;entryDy=0;" edge="1" parent="1" target="ZS7BS693ceSWYsbFOPGz-4">
          <mxGeometry width="50" height="50" relative="1" as="geometry">
            <mxPoint x="151" y="230" as="sourcePoint" />
            <mxPoint x="201" y="180" as="targetPoint" />
          </mxGeometry>
        </mxCell>
        <mxCell id="ZS7BS693ceSWYsbFOPGz-42" value="" style="endArrow=none;html=1;rounded=0;" edge="1" parent="1" target="ZS7BS693ceSWYsbFOPGz-6">
          <mxGeometry width="50" height="50" relative="1" as="geometry">
            <mxPoint x="150" y="230" as="sourcePoint" />
            <mxPoint x="200" y="180" as="targetPoint" />
          </mxGeometry>
        </mxCell>
        <mxCell id="ZS7BS693ceSWYsbFOPGz-43" value="" style="endArrow=none;html=1;rounded=0;entryX=0;entryY=0.35;entryDx=0;entryDy=0;entryPerimeter=0;" edge="1" parent="1" target="ZS7BS693ceSWYsbFOPGz-7">
          <mxGeometry width="50" height="50" relative="1" as="geometry">
            <mxPoint x="150" y="230" as="sourcePoint" />
            <mxPoint x="200" y="180" as="targetPoint" />
          </mxGeometry>
        </mxCell>
        <mxCell id="ZS7BS693ceSWYsbFOPGz-44" value="" style="endArrow=none;html=1;rounded=0;entryX=0;entryY=0.5;entryDx=0;entryDy=0;" edge="1" parent="1" target="ZS7BS693ceSWYsbFOPGz-8">
          <mxGeometry width="50" height="50" relative="1" as="geometry">
            <mxPoint x="150" y="230" as="sourcePoint" />
            <mxPoint x="200" y="180" as="targetPoint" />
          </mxGeometry>
        </mxCell>
        <mxCell id="ZS7BS693ceSWYsbFOPGz-45" value="" style="endArrow=none;html=1;rounded=0;entryX=0;entryY=0.5;entryDx=0;entryDy=0;" edge="1" parent="1" target="ZS7BS693ceSWYsbFOPGz-9">
          <mxGeometry width="50" height="50" relative="1" as="geometry">
            <mxPoint x="150" y="230" as="sourcePoint" />
            <mxPoint x="200" y="180" as="targetPoint" />
          </mxGeometry>
        </mxCell>
        <mxCell id="ZS7BS693ceSWYsbFOPGz-46" value="" style="endArrow=none;html=1;rounded=0;entryX=0;entryY=0.5;entryDx=0;entryDy=0;" edge="1" parent="1" target="ZS7BS693ceSWYsbFOPGz-10">
          <mxGeometry width="50" height="50" relative="1" as="geometry">
            <mxPoint x="150" y="575" as="sourcePoint" />
            <mxPoint x="200" y="525" as="targetPoint" />
          </mxGeometry>
        </mxCell>
        <mxCell id="ZS7BS693ceSWYsbFOPGz-47" value="" style="endArrow=none;html=1;rounded=0;entryX=0;entryY=0.5;entryDx=0;entryDy=0;" edge="1" parent="1" target="ZS7BS693ceSWYsbFOPGz-11">
          <mxGeometry width="50" height="50" relative="1" as="geometry">
            <mxPoint x="150" y="575" as="sourcePoint" />
            <mxPoint x="200" y="525" as="targetPoint" />
          </mxGeometry>
        </mxCell>
        <mxCell id="ZS7BS693ceSWYsbFOPGz-48" value="" style="endArrow=none;html=1;rounded=0;entryX=0;entryY=0.5;entryDx=0;entryDy=0;" edge="1" parent="1" target="ZS7BS693ceSWYsbFOPGz-12">
          <mxGeometry width="50" height="50" relative="1" as="geometry">
            <mxPoint x="150" y="575" as="sourcePoint" />
            <mxPoint x="200" y="525" as="targetPoint" />
          </mxGeometry>
        </mxCell>
        <mxCell id="ZS7BS693ceSWYsbFOPGz-49" value="" style="endArrow=none;html=1;rounded=0;entryX=0;entryY=0.5;entryDx=0;entryDy=0;" edge="1" parent="1" target="ZS7BS693ceSWYsbFOPGz-13">
          <mxGeometry width="50" height="50" relative="1" as="geometry">
            <mxPoint x="150" y="575" as="sourcePoint" />
            <mxPoint x="200" y="525" as="targetPoint" />
          </mxGeometry>
        </mxCell>
        <mxCell id="ZS7BS693ceSWYsbFOPGz-50" value="" style="endArrow=none;html=1;rounded=0;entryX=0;entryY=0.5;entryDx=0;entryDy=0;" edge="1" parent="1" target="ZS7BS693ceSWYsbFOPGz-14">
          <mxGeometry width="50" height="50" relative="1" as="geometry">
            <mxPoint x="151" y="576" as="sourcePoint" />
            <mxPoint x="201" y="526" as="targetPoint" />
          </mxGeometry>
        </mxCell>
        <mxCell id="ZS7BS693ceSWYsbFOPGz-54" value="" style="endArrow=none;html=1;rounded=0;entryX=0;entryY=0.5;entryDx=0;entryDy=0;" edge="1" parent="1" target="ZS7BS693ceSWYsbFOPGz-53">
          <mxGeometry width="50" height="50" relative="1" as="geometry">
            <mxPoint x="151" y="574" as="sourcePoint" />
            <mxPoint x="309.96000000000004" y="721" as="targetPoint" />
          </mxGeometry>
        </mxCell>
        <mxCell id="ZS7BS693ceSWYsbFOPGz-55" value="" style="endArrow=classic;html=1;rounded=0;entryX=1;entryY=1;entryDx=0;entryDy=0;dashed=1;exitX=0.992;exitY=0.325;exitDx=0;exitDy=0;exitPerimeter=0;" edge="1" parent="1" target="ZS7BS693ceSWYsbFOPGz-16">
          <mxGeometry width="50" height="50" relative="1" as="geometry">
            <mxPoint x="441" y="724" as="sourcePoint" />
            <mxPoint x="636" y="534" as="targetPoint" />
          </mxGeometry>
        </mxCell>
        <mxCell id="ZS7BS693ceSWYsbFOPGz-56" value="Includes" style="edgeLabel;html=1;align=center;verticalAlign=middle;resizable=0;points=[];" vertex="1" connectable="0" parent="ZS7BS693ceSWYsbFOPGz-55">
          <mxGeometry x="0.0864" relative="1" as="geometry">
            <mxPoint x="-44" y="47" as="offset" />
          </mxGeometry>
        </mxCell>
      </root>
    </mxGraphModel>
  </diagram>
</mxfile>
